<svg width="40" height="20" viewBox="0 0 40 20" fill="none" xmlns="http://www.w3.org/2000/svg">
<rect width="40" height="20" rx="10" fill="#1F845A"/>
<circle cx="30" cy="10" r="8" fill="white"/>
<path d="M7.13002 9.11839C7.09142 9.07865 7.04524 9.04705 6.99421 9.02548C6.94318 9.00391 9.38871 8.99279 9.33331 8.99279C9.27791 8.99279 6.7227 9.00391 6.67167 9.02548C6.62064 9.04705 6.57446 9.07865 6.53586 9.11839L5.95252 9.70255C5.91341 9.74118 5.8823 9.78715 5.861 9.83783C5.83969 9.8885 5.82861 9.94289 5.82837 9.99787C5.82814 10.0528 5.83877 10.1073 5.85964 10.1582C5.88052 10.209 5.91123 10.2553 5.95002 10.2942L9.03836 13.3834C9.1162 13.4611 9.22158 13.505 9.33159 13.5055C9.4416 13.5059 9.54735 13.463 9.62586 13.3859L16.0525 6.95922C16.0917 6.92058 16.1227 6.87447 16.1438 6.82361C16.1648 6.77275 16.1754 6.71819 16.1749 6.66316C16.1745 6.60813 16.1629 6.55375 16.1411 6.50326C16.1192 6.45276 16.0874 6.40718 16.0475 6.36922L15.4642 5.78588C15.4252 5.74673 15.3788 5.71566 15.3278 5.69446C15.2767 5.67327 15.222 5.66235 15.1667 5.66235C15.1114 5.66235 15.0567 5.67327 15.0056 5.69446C14.9546 5.71566 14.9082 5.74673 14.8692 5.78588L9.63086 11.0242C9.55187 11.1026 9.44508 11.1466 9.33377 11.1466C9.22247 11.1466 9.11568 11.1026 9.03669 11.0242L7.13002 9.11839Z" fill="white"/>
</svg>
