<svg width="95" height="18" viewBox="0 0 95 18" fill="none" xmlns="http://www.w3.org/2000/svg">
<path d="M0.29248 1.72249H6.77462C9.93533 1.72249 11.4621 3.23434 11.4621 5.65851C11.4621 7.48315 10.605 8.60401 8.86391 8.995C11.1407 9.35993 12.2925 10.585 12.2925 12.7225C12.2925 15.1206 10.6318 16.7888 7.14962 16.7888H0.29248V1.72249ZM2.43534 8.16088H6.50676C8.51569 8.16088 9.34605 7.27462 9.34605 5.81491C9.34605 4.35519 8.46212 3.6514 6.50676 3.6514H2.43534V8.16088ZM2.43534 10.0116V14.7035H7.25676C9.29248 14.7035 10.2032 13.9997 10.2032 12.4879C10.2032 10.8718 9.31926 10.0116 7.20319 10.0116H2.43534Z" fill="#44546F"/>
<path d="M15.7746 0.914433C16.605 0.914433 17.1943 1.40969 17.1943 2.29595C17.1943 3.15614 16.605 3.67747 15.7746 3.67747C14.9443 3.67747 14.355 3.18221 14.355 2.29595C14.355 1.40969 14.9443 0.914433 15.7746 0.914433ZM14.73 5.31965H16.7657V16.7888H14.73V5.31965Z" fill="#44546F"/>
<path d="M24.48 14.9381C24.9622 14.9381 25.3907 14.8339 25.7657 14.7817V16.6846C25.4175 16.7888 25.0157 16.867 24.3997 16.867C21.8818 16.867 20.6497 15.4334 20.6497 13.296V7.14429H18.7479V5.31965H20.6497V2.89548H22.6318V5.31965H25.7657V7.14429H22.6318V13.2178C22.6318 14.2343 23.2479 14.9381 24.48 14.9381Z" fill="#44546F"/>
<path d="M30.3728 14.7557V16.7628H28.337V0.523438H30.3728V7.37889C31.1228 5.86704 32.5424 5.08505 34.3638 5.08505C37.4977 5.08505 39.0781 7.66562 39.0781 11.0542C39.0781 14.2865 37.4174 17.0234 34.1227 17.0234C32.4085 17.0234 31.096 16.2675 30.3728 14.7557ZM33.8281 6.93576C32.0067 6.93576 30.3995 8.05661 30.3995 10.6111V11.5234C30.3995 14.0779 31.8728 15.1988 33.6138 15.1988C35.8906 15.1988 37.0692 13.7391 37.0692 11.0803C37.0424 8.29121 35.9174 6.93576 33.8281 6.93576Z" fill="#44546F"/>
<path d="M41.1942 5.31965H43.2299V12.2533C43.2299 14.3125 44.087 15.2249 46.0156 15.2249C47.8906 15.2249 49.2031 13.9997 49.2031 11.6798V5.31965H51.2388V16.7888H49.2031V14.9121C48.4531 16.2675 47.0603 17.0234 45.4799 17.0234C42.7745 17.0234 41.221 15.1988 41.221 12.0448V5.31965H41.1942Z" fill="#44546F"/>
<path d="M62.5961 16.476C61.8997 16.841 60.8014 16.9974 59.73 16.9974C55.5247 16.9974 53.5693 14.5211 53.5693 11.0021C53.5693 7.53528 55.5247 5.05898 59.73 5.05898C60.8014 5.05898 61.605 5.18931 62.5425 5.60637V7.43102C61.7925 7.09216 60.9889 6.88363 59.8907 6.88363C56.8372 6.88363 55.5782 8.7604 55.5782 11.0021C55.5782 13.2438 56.864 15.1206 59.9443 15.1206C61.1497 15.1206 61.8997 14.9642 62.6229 14.7035V16.476H62.5961Z" fill="#44546F"/>
<path d="M64.8995 16.7888V0.523438H66.9353V10.6893L71.9978 5.31965H74.6496L69.1049 10.95L74.8906 16.7888H72.1317L66.9353 11.4192V16.7888H64.8995Z" fill="#44546F"/>
<path d="M81.5872 17.0234C77.1676 17.0234 75.239 14.5471 75.239 11.0282C75.239 7.56135 77.2212 5.08505 80.8104 5.08505C84.4533 5.08505 85.8997 7.53529 85.8997 11.0282V11.9144H77.3015C77.5962 13.8694 78.8819 15.1206 81.6676 15.1206C83.0337 15.1206 84.1854 14.8599 85.2569 14.495V16.3196C84.2926 16.841 82.7926 17.0234 81.5872 17.0234ZM77.2747 10.2201H83.864C83.7569 8.08268 82.7658 6.88363 80.7301 6.88363C78.5872 6.88363 77.489 8.23908 77.2747 10.2201Z" fill="#44546F"/>
<path d="M92.971 14.9381C93.4532 14.9381 93.8817 14.8339 94.2567 14.7817V16.6846C93.9085 16.7888 93.5067 16.867 92.8907 16.867C90.3728 16.867 89.1407 15.4334 89.1407 13.296V7.14429H87.2389V5.31965H89.1407V2.89548H91.1228V5.31965H94.2567V7.14429H91.1228V13.2178C91.1228 14.2343 91.7389 14.9381 92.971 14.9381Z" fill="#44546F"/>
</svg>
