<svg width="24" height="24" viewBox="0 0 24 24" fill="none" xmlns="http://www.w3.org/2000/svg">
<rect x="5" y="5" width="14" height="14" rx="2" fill="#0C66E4"/>
<path fill-rule="evenodd" clip-rule="evenodd" d="M9.70699 11.2993C9.61474 11.2038 9.5044 11.1276 9.38239 11.0752C9.26039 11.0228 9.12917 10.9952 8.99639 10.9941C8.86361 10.9929 8.73193 11.0182 8.60904 11.0685C8.48614 11.1188 8.37449 11.193 8.28059 11.2869C8.1867 11.3808 8.11245 11.4925 8.06217 11.6154C8.01189 11.7382 7.98659 11.8699 7.98774 12.0027C7.98889 12.1355 8.01648 12.2667 8.06889 12.3887C8.1213 12.5107 8.19748 12.6211 8.29299 12.7133L10.293 14.7133C10.4805 14.9008 10.7348 15.0061 11 15.0061C11.2652 15.0061 11.5195 14.9008 11.707 14.7133L15.707 10.7133C15.8025 10.6211 15.8787 10.5107 15.9311 10.3887C15.9835 10.2667 16.0111 10.1355 16.0122 10.0027C16.0134 9.86993 15.9881 9.73825 15.9378 9.61535C15.8875 9.49246 15.8133 9.38081 15.7194 9.28691C15.6255 9.19302 15.5138 9.11877 15.3909 9.06849C15.268 9.0182 15.1364 8.9929 15.0036 8.99406C14.8708 8.99521 14.7396 9.0228 14.6176 9.07521C14.4956 9.12761 14.3852 9.2038 14.293 9.29931L11 12.5923L9.70699 11.2993Z" fill="white"/>
</svg>
