<svg width="24" height="25" viewBox="0 0 24 25" fill="none" xmlns="http://www.w3.org/2000/svg">
<g opacity="0.51">
<path fill-rule="evenodd" clip-rule="evenodd" d="M8.29207 10.8164C8.10526 11.0053 8.00049 11.2602 8.00049 11.5259C8.00049 11.7915 8.10526 12.0465 8.29207 12.2354L11.2311 15.2004C11.4491 15.4154 11.7311 15.5224 12.0101 15.5224C12.2891 15.5224 12.5661 15.4154 12.7791 15.2004L15.7091 12.2454C15.8956 12.0564 16.0002 11.8015 16.0002 11.5359C16.0002 11.2703 15.8956 11.0154 15.7091 10.8264C15.6172 10.7332 15.5078 10.6592 15.3871 10.6087C15.2664 10.5582 15.1369 10.5322 15.0061 10.5322C14.8752 10.5322 14.7457 10.5582 14.625 10.6087C14.5043 10.6592 14.3949 10.7332 14.3031 10.8264L12.0051 13.1434L9.69807 10.8164C9.60603 10.7236 9.49652 10.6499 9.37586 10.5996C9.25521 10.5493 9.12578 10.5234 8.99507 10.5234C8.86435 10.5234 8.73493 10.5493 8.61427 10.5996C8.49361 10.6499 8.38411 10.7236 8.29207 10.8164V10.8164Z" fill="#626F86"/>
</g>
</svg>
