<svg width="24" height="24" viewBox="0 0 24 24" fill="none" xmlns="http://www.w3.org/2000/svg">
<path d="M12.6542 8.76401C12.492 8.91814 12.276 9.00281 12.0522 8.99995C11.8285 8.9971 11.6147 8.90694 11.4565 8.74872C11.2982 8.5905 11.2081 8.37672 11.2052 8.15297C11.2024 7.92923 11.287 7.71322 11.4412 7.55101L12.6552 6.33701C13.0003 5.9918 13.4101 5.71796 13.8611 5.53113C14.3121 5.3443 14.7955 5.24814 15.2837 5.24814C15.7719 5.24814 16.2552 5.3443 16.7062 5.53113C17.1572 5.71796 17.567 5.9918 17.9122 6.33701C18.258 6.68192 18.5323 7.09165 18.7196 7.54273C18.9068 7.99382 19.0032 8.4774 19.0033 8.9658C19.0034 9.4542 18.9072 9.93782 18.7201 10.389C18.533 10.8401 18.2588 11.25 17.9132 11.595L16.6992 12.809L15.8952 13.613C15.55 13.9591 15.1401 14.2338 14.6887 14.4213C14.2374 14.6089 13.7535 14.7057 13.2647 14.7061C12.7759 14.7066 12.2919 14.6107 11.8402 14.424C11.3885 14.2373 10.978 13.9634 10.6322 13.618C10.4712 13.457 10.3808 13.2387 10.3808 13.011C10.3808 12.7833 10.4712 12.565 10.6322 12.404C10.7932 12.243 11.0115 12.1526 11.2392 12.1526C11.4669 12.1526 11.6852 12.243 11.8462 12.404C12.6272 13.186 13.8962 13.184 14.6822 12.399L15.4862 11.596L16.7002 10.382C16.8865 10.1963 17.0342 9.97566 17.135 9.73272C17.2358 9.48978 17.2877 9.22932 17.2876 8.9663C17.2875 8.70327 17.2355 8.44286 17.1345 8.19999C17.0335 7.95711 16.8856 7.73657 16.6992 7.55101C16.5134 7.36505 16.2929 7.21754 16.0501 7.11689C15.8073 7.01624 15.547 6.96443 15.2842 6.96443C15.0214 6.96443 14.7611 7.01624 14.5183 7.11689C14.2755 7.21754 14.0549 7.36505 13.8692 7.55101L12.6542 8.76401ZM11.8462 15.236C12.0084 15.0819 12.2244 14.9972 12.4481 15.0001C12.6719 15.0029 12.8857 15.0931 13.0439 15.2513C13.2021 15.4095 13.2923 15.6233 13.2951 15.847C13.298 16.0708 13.2133 16.2868 13.0592 16.449L11.8452 17.663C11.5 18.0082 11.0902 18.2821 10.6392 18.4689C10.1882 18.6557 9.70485 18.7519 9.21668 18.7519C8.72852 18.7519 8.24513 18.6557 7.79413 18.4689C7.34313 18.2821 6.93335 18.0082 6.58818 17.663C6.2424 17.3181 5.96804 16.9084 5.78081 16.4573C5.59358 16.0062 5.49716 15.5226 5.49707 15.0342C5.49698 14.5458 5.59321 14.0622 5.78027 13.611C5.96733 13.1599 6.24153 12.7501 6.58718 12.405L7.80118 11.191L8.60518 10.387C8.95033 10.0409 9.36029 9.76625 9.81164 9.57869C10.263 9.39112 10.7469 9.29434 11.2356 9.29388C11.7244 9.29342 12.2085 9.38928 12.6602 9.57598C13.1119 9.76269 13.5224 10.0366 13.8682 10.382C14.0292 10.543 14.1196 10.7613 14.1196 10.989C14.1196 11.2167 14.0292 11.435 13.8682 11.596C13.7072 11.757 13.4889 11.8474 13.2612 11.8474C13.0335 11.8474 12.8152 11.757 12.6542 11.596C12.4677 11.4101 12.2463 11.2627 12.0029 11.1623C11.7594 11.062 11.4985 11.0105 11.2351 11.011C10.9718 11.0115 10.7111 11.0638 10.468 11.165C10.2248 11.2663 10.004 11.4144 9.81818 11.601L9.01418 12.404L7.80018 13.618C7.61391 13.8037 7.46613 14.0244 7.36533 14.2673C7.26453 14.5102 7.21268 14.7707 7.21278 15.0337C7.21287 15.2967 7.2649 15.5572 7.36587 15.8C7.46684 16.0429 7.61478 16.2634 7.80118 16.449C7.98693 16.635 8.20751 16.7825 8.4503 16.8831C8.6931 16.9838 8.95335 17.0356 9.21618 17.0356C9.47901 17.0356 9.73927 16.9838 9.98207 16.8831C10.2249 16.7825 10.4454 16.635 10.6312 16.449L11.8462 15.236Z" fill="white"/>
</svg>
