<svg width="80" height="72" viewBox="0 0 80 72" fill="none" xmlns="http://www.w3.org/2000/svg">
<path fill-rule="evenodd" clip-rule="evenodd" d="M16.66 34.539C16.66 25.425 27.13 18.009 40 18.009C52.87 18.009 63.34 25.425 63.34 34.539C63.34 43.656 52.87 51.069 40 51.069C27.13 51.069 16.66 43.656 16.66 34.539ZM66.1267 57.852V57.846C66.1267 57.846 60.9133 51.066 63.57 48.498L63.4467 48.558C67.5367 44.706 70 39.837 70 34.539C70 22.113 56.5433 12 40 12C23.4567 12 10 22.11 10 34.539C10 46.968 23.4567 57.081 40 57.081C44.7333 57.081 49.2 56.226 53.19 54.753C56.5333 57.819 60.8133 59.469 63.99 59.91L63.9967 59.901C64.1718 59.9601 64.3564 59.9936 64.5433 60C64.8268 59.9999 65.1058 59.9367 65.3555 59.8159C65.6052 59.6951 65.8178 59.5206 65.9742 59.3079C66.1307 59.0951 66.2262 58.8508 66.2522 58.5968C66.2782 58.3428 66.2373 58.0869 66.1267 57.852Z" fill="#9FADBC"/>
<path d="M53.3333 27H26.6667C24.8257 27 23.3333 28.3431 23.3333 30C23.3333 31.6569 24.8257 33 26.6667 33H53.3333C55.1743 33 56.6667 31.6569 56.6667 30C56.6667 28.3431 55.1743 27 53.3333 27Z" fill="#9FADBC"/>
<path d="M36.6667 36H26.6667C24.8257 36 23.3333 37.3431 23.3333 39C23.3333 40.6569 24.8257 42 26.6667 42H36.6667C38.5076 42 40 40.6569 40 39C40 37.3431 38.5076 36 36.6667 36Z" fill="#9FADBC"/>
</svg>
