<svg width="24" height="24" viewBox="0 0 24 24" fill="none" xmlns="http://www.w3.org/2000/svg">
<path fill-rule="evenodd" clip-rule="evenodd" d="M6.71973 15H8.21973C8.21973 12.487 10.0407 10.5 12.2197 10.5C13.5577 10.5 14.7597 11.25 15.4897 12.408L13.4597 13.58C13.2197 13.72 13.2407 13.905 13.4887 13.99L16.2187 14.92L16.2197 15V14.92L17.5917 15.387C17.6495 15.4083 17.7113 15.4166 17.7727 15.4113C17.8341 15.406 17.8936 15.3873 17.9469 15.3565C18.0003 15.3257 18.0462 15.2835 18.0814 15.233C18.1166 15.1824 18.1403 15.1247 18.1507 15.064L18.9917 10.814C19.0437 10.547 18.8847 10.448 18.6507 10.584L16.7887 11.659C15.8007 10.055 14.1237 9 12.2197 9C9.18273 9 6.72773 11.687 6.71973 15Z" fill="#091E42" fill-opacity="0.14"/>
</svg>
