<svg width="24" height="24" viewBox="0 0 24 24" fill="none" xmlns="http://www.w3.org/2000/svg">
<path fill-rule="evenodd" clip-rule="evenodd" d="M14.9952 10.995C15.1826 11.1825 15.288 11.4368 15.288 11.702C15.288 11.9672 15.1826 12.2215 14.9952 12.409L10.4022 17.002C10.2159 17.1846 9.96507 17.2862 9.70424 17.2849C9.44341 17.2836 9.19364 17.1794 9.0092 16.995C8.82477 16.8105 8.72057 16.5608 8.71925 16.2999C8.71793 16.0391 8.8196 15.7883 9.00217 15.602L12.9022 11.702L9.00217 7.80199C8.8196 7.6157 8.71793 7.36489 8.71925 7.10406C8.72057 6.84324 8.82477 6.59346 9.0092 6.40903C9.19364 6.22459 9.44341 6.12039 9.70424 6.11908C9.96507 6.11776 10.2159 6.21943 10.4022 6.40199L14.9952 10.995Z" fill="#44546F"/>
</svg>
