<svg width="24" height="24" viewBox="0 0 24 24" fill="none" xmlns="http://www.w3.org/2000/svg">
<path fill-rule="evenodd" clip-rule="evenodd" d="M4.1009 13.569C3.8539 14.069 4.0749 14.664 4.5939 14.902C5.1139 15.139 5.7359 14.927 5.9819 14.429C7.0109 12.351 9.1929 11 11.6299 11C13.8959 11 15.9489 12.167 17.0549 14.021C17.3409 14.5 17.9769 14.666 18.4759 14.392C18.5933 14.3301 18.6969 14.2449 18.7804 14.1417C18.8639 14.0385 18.9256 13.9195 18.9617 13.7917C18.9978 13.664 19.0075 13.5303 18.9904 13.3986C18.9732 13.267 18.9295 13.1402 18.8619 13.026C17.3889 10.557 14.6499 9 11.6299 9C8.3829 9 5.4719 10.802 4.1009 13.569Z" fill="white"/>
<path fill-rule="evenodd" clip-rule="evenodd" d="M17.4969 10V13H14.5019C14.2367 13 13.9823 13.1054 13.7948 13.2929C13.6073 13.4804 13.5019 13.7348 13.5019 14C13.5019 14.2652 13.6073 14.5196 13.7948 14.7071C13.9823 14.8946 14.2367 15 14.5019 15H18.3979C19.0059 15 19.4999 14.507 19.4999 13.9V10C19.4999 9.73439 19.3944 9.47965 19.2066 9.29183C19.0187 9.10402 18.764 8.9985 18.4984 8.9985C18.2328 8.9985 17.9781 9.10402 17.7902 9.29183C17.6024 9.47965 17.4969 9.73439 17.4969 10Z" fill="white"/>
</svg>
