<svg width="34" height="25" viewBox="0 0 34 25" fill="none" xmlns="http://www.w3.org/2000/svg">
<g clip-path="url(#clip0_15291_2102)">
<path d="M14.5543 24.0653C9.81014 22.4763 4.93871 22.0063 0 21.702V1.59967C0.153653 1.75689 0.259119 1.85274 0.350037 1.95951C1.26468 3.0281 2.18751 4.08997 3.0776 5.17453C3.25035 5.38472 3.37763 5.68655 3.37854 5.94718C3.39673 9.87432 3.39673 13.8015 3.37763 17.7286C3.37491 18.2028 3.45128 18.4071 4.04589 18.4668C6.8871 18.756 9.71649 19.1234 12.4241 20.039C12.7686 20.1558 12.9523 20.3307 13.0814 20.6409C13.5442 21.7608 14.037 22.8698 14.5543 24.0653Z" fill="url(#paint0_linear_15291_2102)"/>
<path d="M34 1.59131V21.702C29.0777 22.008 24.209 22.4679 19.4903 24.0578C19.5394 23.9056 19.5703 23.7736 19.6239 23.6509C20.0603 22.6394 20.5122 21.6339 20.9341 20.6174C21.0559 20.3232 21.2341 20.1576 21.5569 20.0474C23.7835 19.2916 26.101 18.9217 28.4376 18.6282C28.9867 18.5593 29.5368 18.4668 30.0887 18.4492C30.5305 18.4357 30.6224 18.2718 30.6215 17.8943C30.6078 13.9663 30.6187 10.0391 30.6051 6.11117C30.6033 5.70341 30.7106 5.38308 30.9924 5.06528C31.8907 4.04798 32.759 3.00629 33.6409 1.97553C33.7345 1.86539 33.8382 1.76366 34 1.59131Z" fill="url(#paint1_linear_15291_2102)"/>
<path d="M15.1325 13.9915C15.1253 14.7002 15.5089 15.1946 16.1754 15.5343C16.3363 15.6158 16.5381 15.8092 16.539 15.9521C16.56 18.7249 16.5545 21.4977 16.5518 24.2705C16.5518 24.31 16.5263 24.3503 16.4745 24.5C16.0754 23.5869 15.7135 22.7672 15.3589 21.945C14.087 19.0032 12.8123 16.0614 11.5567 13.1129C11.4658 12.8977 11.4485 12.611 11.5158 12.389C11.9158 11.08 12.3395 9.77765 12.7823 8.48037C12.8896 8.16761 12.8286 7.99778 12.5395 7.80441C10.2484 6.27172 7.68628 5.29477 4.98417 4.58939C4.72506 4.52213 4.45321 4.35566 4.28228 4.16313C3.38127 3.1475 2.51027 2.10918 1.63018 1.07758C1.5038 0.92961 1.38561 0.775753 1.21741 0.566406C5.55696 0.788364 9.44192 2.02595 13.0032 4.14883C14.0797 4.79033 15.1071 5.50244 16.1626 6.1742C16.4409 6.3516 16.5681 6.55506 16.5636 6.88883C16.5436 8.57117 16.5481 10.2543 16.5609 11.9375C16.5636 12.2267 16.4954 12.3856 16.1772 12.5134C15.5008 12.785 15.1398 13.3037 15.1325 13.9915Z" fill="url(#paint2_linear_15291_2102)"/>
<path d="M32.7617 0.610138C32.618 0.782491 32.4753 0.955686 32.3298 1.1272C31.4606 2.14703 30.6005 3.17358 29.7123 4.17911C29.5513 4.36072 29.2959 4.51878 29.0513 4.58183C26.3628 5.27713 23.8189 6.25324 21.5278 7.75482C21.1886 7.97678 21.1104 8.17267 21.2404 8.54512C21.6878 9.82474 22.0942 11.1161 22.4969 12.4075C22.5542 12.5916 22.5733 12.8279 22.4997 13.0002C20.885 16.7651 19.2548 20.5241 17.6264 24.2839C17.6091 24.3251 17.5746 24.3613 17.5019 24.4672C17.4755 24.3058 17.4473 24.2099 17.4473 24.1141C17.4446 21.4363 17.45 18.7585 17.4391 16.0816C17.4373 15.7873 17.52 15.6368 17.831 15.509C18.5029 15.2316 18.8647 14.7154 18.8711 14.026C18.8766 13.3138 18.5056 12.7909 17.8119 12.5059C17.5219 12.3865 17.4373 12.2486 17.4391 11.972C17.451 10.2569 17.4382 8.54092 17.4564 6.82579C17.4582 6.64587 17.5537 6.40121 17.6983 6.29696C21.0668 3.87645 24.6763 1.88135 28.9131 1.0591C30.1614 0.816121 31.4352 0.683283 32.6971 0.5C32.718 0.536993 32.7399 0.573145 32.7617 0.610138Z" fill="url(#paint3_linear_15291_2102)"/>
</g>
<defs>
<linearGradient id="paint0_linear_15291_2102" x1="14.4167" y1="26.9315" x2="2.2229" y2="24.6652" gradientUnits="userSpaceOnUse">
<stop stop-color="#0052CC"/>
<stop offset="0.9182" stop-color="#2380FB"/>
<stop offset="1" stop-color="#2684FF"/>
</linearGradient>
<linearGradient id="paint1_linear_15291_2102" x1="27.9246" y1="-1.35779" x2="22.578" y2="10.3539" gradientUnits="userSpaceOnUse">
<stop offset="0.15" stop-color="#0052CC"/>
<stop offset="0.5032" stop-color="#0E64DE"/>
<stop offset="1" stop-color="#2684FF"/>
</linearGradient>
<linearGradient id="paint2_linear_15291_2102" x1="15.7495" y1="1.99865" x2="3.4204" y2="10.0369" gradientUnits="userSpaceOnUse">
<stop offset="0.2" stop-color="#0052CC"/>
<stop offset="1" stop-color="#2684FF"/>
</linearGradient>
<linearGradient id="paint3_linear_15291_2102" x1="17.5722" y1="-2.56699" x2="30.4414" y2="-0.204525" gradientUnits="userSpaceOnUse">
<stop stop-color="#0052CC"/>
<stop offset="0.9182" stop-color="#2380FB"/>
<stop offset="1" stop-color="#2684FF"/>
</linearGradient>
<clipPath id="clip0_15291_2102">
<rect width="34" height="24" fill="white" transform="translate(0 0.5)"/>
</clipPath>
</defs>
</svg>
